<svg width="12" height="12" viewBox="0 0 0.225 0.225" fill="none" xmlns="http://www.w3.org/2000/svg"><path d="M.068.068.074.064A.007.007 0 0 0 .06.068h.007ZM.113.21A.098.098 0 0 1 .015.112H0a.112.112 0 0 0 .112.113V.21ZM.21.112A.098.098 0 0 1 .112.21v.015A.112.112 0 0 0 .225.112H.21ZM.112.015A.098.098 0 0 1 .21.112h.015A.112.112 0 0 0 .112 0v.015Zm0-.015A.112.112 0 0 0 0 .112h.015A.098.098 0 0 1 .112.015V0ZM.075.18V.068H.06V.18h.015ZM.061.072l.098.135.012-.009L.073.063.061.072ZM.15.06v.09h.015V.06H.15Z" fill="#fff"/></svg>