<svg width="20px" height="20px" viewBox="0 0 20 20" version="1.1" xmlns="http://www.w3.org/2000/svg" xmlns:xlink="http://www.w3.org/1999/xlink" preserveAspectRatio="xMidYMid"><g><path d="M9.345 0.005c-0.043 0.004 -0.18 0.018 -0.303 0.027 -2.841 0.256 -5.501 1.789 -7.187 4.144 -0.938 1.31 -1.539 2.795 -1.765 4.369C0.01 9.095 0 9.257 0 10.002c0 0.745 0.01 0.907 0.09 1.456 0.544 3.755 3.216 6.91 6.841 8.079 0.649 0.209 1.333 0.352 2.111 0.438 0.303 0.033 1.613 0.033 1.916 0 1.343 -0.149 2.481 -0.481 3.603 -1.054 0.172 -0.088 0.205 -0.111 0.182 -0.131 -0.016 -0.012 -0.749 -0.995 -1.629 -2.183l-1.599 -2.16 -2.004 -2.965c-1.103 -1.63 -2.01 -2.963 -2.018 -2.963 -0.008 -0.002 -0.016 1.316 -0.02 2.924 -0.006 2.817 -0.008 2.93 -0.043 2.997 -0.051 0.096 -0.09 0.135 -0.172 0.178 -0.063 0.031 -0.117 0.037 -0.413 0.037h-0.338l-0.09 -0.057a0.366 0.366 0 0 1 -0.131 -0.143l-0.041 -0.088 0.004 -3.919 0.006 -3.921 0.061 -0.076c0.031 -0.041 0.098 -0.094 0.145 -0.119 0.08 -0.039 0.111 -0.043 0.45 -0.043 0.399 0 0.465 0.016 0.569 0.129 0.029 0.031 1.114 1.665 2.413 3.634 1.298 1.968 3.073 4.656 3.945 5.976l1.584 2.398 0.08 -0.053c0.71 -0.461 1.46 -1.118 2.055 -1.802 1.265 -1.452 2.08 -3.223 2.354 -5.112 0.08 -0.549 0.09 -0.712 0.09 -1.456 0 -0.745 -0.01 -0.907 -0.09 -1.456 -0.544 -3.755 -3.216 -6.91 -6.841 -8.079 -0.639 -0.207 -1.32 -0.35 -2.082 -0.436 -0.188 -0.02 -1.48 -0.041 -1.642 -0.025Zm4.094 6.048c0.094 0.047 0.17 0.137 0.197 0.231 0.016 0.051 0.02 1.138 0.016 3.587l-0.006 3.515 -0.62 -0.95 -0.622 -0.95v-2.555c0 -1.652 0.008 -2.58 0.02 -2.625 0.031 -0.109 0.1 -0.195 0.194 -0.246 0.08 -0.041 0.109 -0.045 0.416 -0.045 0.289 0 0.34 0.004 0.405 0.039Z" fill="#fff"/></g></svg>